<?xml version="1.0" encoding="UTF-8"?>
<svg id="Layer_1" xmlns="http://www.w3.org/2000/svg" version="1.1" viewBox="0 0 3000 3000">
  <!-- Generator: Adobe Illustrator 30.0.0, SVG Export Plug-In . SVG Version: 2.1.1 Build 123)  -->
  <defs>
    <style>
      .st0, .st1 {
        fill: #ef853f;
      }

      .st2, .st3 {
        fill: #fff;
      }

      .st4, .st5 {
        fill: #2874bb;
      }

      .st6, .st3, .st5, .st1, .st7, .st8, .st9, .st10 {
        display: none;
      }

      .st6, .st11 {
        fill: #b03b25;
      }

      .st12, .st7 {
        fill: #8a7a6b;
      }

      .st9 {
        fill: #196bb5;
      }

      .st10 {
        fill: #fff200;
      }
    </style>
  </defs>
  <path class="st9" d="M692.55,365.16v2269.67h558.71s0,0,0,0v-772.51c0-47.25,59.56-68.05,88.97-31.07,162.57,204.41,325.14,408.82,487.72,613.23.78.98,1.51,1.99,2.22,3.03,84.4,124.51,274.81,200.15,477.29,185.51V365.16s0,0,0,0H692.55Z"/>
  <rect class="st2" width="3000" height="3000" rx="383.48" ry="383.48"/>
  <path id="out" class="st5" d="M692.55,365.16v2269.67c181.77,0,368.45,0,550.22,0,1.44-282.86-2.03-565.73-.59-848.59,45.8,16.37,79.27,34.23,98.05,45.02,182.5,104.79,215.69,271.22,487.72,613.23.78.98,1.51,1.99,2.22,3.03,84.4,124.51,274.81,200.15,477.29,185.51V365.16s0,0,0,0H692.55Z"/>
  <path id="mid" class="st3" d="M1242.18,1579.65v-788.57c0-102.89,95.51-186.31,213.32-186.31h344.46c117.81,0,213.32,83.41,213.32,186.31v708.66c0,84.47-65.08,158.38-158.55,180.06l-344.46,79.91c-135.38,31.41-268.08-57.73-268.08-180.06Z"/>
  <path class="st10" d="M692.55,498.65v2269.67c181.77,0,368.45,0,550.22,0,1.44-282.86-1.44-851.32,0-1134.18,2.28.82,62.96,149.74,172.4,283.19,119.74,146.02,313.12,253.58,313.12,253.58,214.44,118.39,282.22,206.61,343.25,261.39,115.36,103.52,235.91,334.22,235.91,334.22V498.65s0,0,0,0H692.55Z"/>
  <path class="st6" d="M692.55,498.65v2269.67c181.77,0,368.45,0,550.22,0,1.44-282.86-1.44-851.32,0-1134.18,2.28.82,62.96,149.74,172.4,283.19,119.74,146.02,313.12,253.58,313.12,253.58,214.44,118.39,282.22,206.61,343.25,261.39,115.36,103.52,235.91,334.22,235.91,334.22V498.65s0,0,0,0H692.55Z"/>
  <g class="st8">
    <path class="st11" d="M692.55,498.65v2269.67c181.77,0,368.45,0,550.22,0,1.44-282.86-1.44-851.32,0-1134.18,2.28.82,62.96,149.74,172.4,283.19,119.74,146.02,313.12,253.58,313.12,253.58,214.44,118.39,282.22,206.61,343.25,261.39,115.36,103.52,235.91,334.22,235.91,334.22V498.65s0,0,0,0H692.55Z"/>
    <path id="awamid" class="st2" d="M895.31,1639.78s329.28-228.28,604.69-143.5c275.41,84.78,602.28,598.09,602.28,598.09V674.19h-859.51l-347.46,965.59Z"/>
  </g>
  <g>
    <path id="out1" data-name="out" class="st4" d="M607.79,246.05v2507.9c200.85,0,407.13,0,607.98,0,1.59-312.55-2.24-625.11-.65-937.66,50.61,18.09,87.59,37.83,108.35,49.74,201.65,115.78,238.33,299.69,538.91,677.6.86,1.08,1.67,2.2,2.45,3.34,93.26,137.58,303.65,221.16,527.39,204.98V246.05s0,0,0,0H607.79Z"/>
    <path id="mid1" data-name="mid" class="st2" d="M1215.12,1588.02v-871.35c0-113.69,105.53-205.86,235.71-205.86h380.62c130.18,0,235.71,92.17,235.71,205.86v783.05c0,93.34-71.91,175-175.2,198.96l-380.62,88.3c-149.59,34.7-296.22-63.79-296.22-198.96Z"/>
  </g>
  <g id="Layer_4" class="st8">
    <path class="st1" d="M0,0h3000v3000H0V0Z"/>
  </g>
  <g class="st8">
    <path class="st1" d="M693.05,365.16v2269.67c181.77,0,368.45,0,550.22,0,1.44-282.86-1.44-851.32,0-1134.18,2.28.82,62.96,149.74,172.4,283.19,119.74,146.02,313.12,253.58,313.12,253.58,214.44,118.39,282.22,206.61,343.25,261.39,115.36,103.52,235.91,334.22,235.91,334.22V365.16h0s-1614.91,0-1614.91,0Z"/>
    <path class="st12" d="M1063.45,580.89c319.18-287.63,820.64-287.64,1244.01,0v2053.95h-1244.01c-533.88-679.99-448.67-1649.63,0-2053.95Z"/>
    <path id="awamid1" data-name="awamid" class="st3" d="M895.81,1506.29s329.28-228.28,604.69-143.5c275.41,84.78,602.28,598.09,602.28,598.09V540.7h-859.51l-347.46,965.59Z"/>
  </g>
  <g class="st8">
    <path id="awamid2" data-name="awamid" class="st3" d="M895.31,1624.95s329.28-228.28,604.69-143.5c275.41,84.78,602.28,598.09,602.28,598.09V659.36h-859.51l-347.46,965.59Z"/>
    <path class="st0" d="M608.12,246.51v2506.98c200.78,0,406.98,0,607.75,0,1.59-312.44-1.59-940.33,0-1252.77,2.52.9,69.55,165.39,190.42,312.8,132.26,161.29,345.86,280.09,345.86,280.09,236.86,130.76,311.73,228.22,379.14,288.72,127.42,114.34,260.58,369.17,260.58,369.17V246.51h0s-1783.76,0-1783.76,0Z"/>
  </g>
  <path class="st7" d="M1103.32,552.4c181.88-151.49,588.41-323.78,1005.67-257.07,206.47,33.01,743.89,295.77,891.01,732.1,217.56,645.26,0,1579.29,0,1972.57h-1896.68c-688.35-810.31-578.47-1965.8,0-2447.6Z"/>
  <path class="st7" d="M1103.32,552.4c181.88-151.49,588.41-323.78,1005.67-257.07,511.8,81.82,891.01,2045.45,891.01,2704.68h-1896.68c-688.35-810.31-578.47-1965.8,0-2447.6Z"/>
  <g class="st8">
    <rect class="st0" width="3000" height="3000"/>
    <path class="st12" d="M1507.02,534.98c383.07-345.2,984.88-345.21,1492.98,0v2465.02h-1492.98c-640.74-816.08-538.46-1979.79,0-2465.02Z"/>
  </g>
  <rect class="st7" width="3000" height="3000" rx="534.98" ry="534.98"/>
  <path class="st1" d="M0,534.98v1930.04c0,295.46,239.52,534.98,534.98,534.98h972.04c-640.74-816.08-538.46-1979.79,0-2465.02,383.07-345.2,984.88-345.21,1492.98,0h0C3000,239.52,2760.48,0,2465.02,0H534.98C239.52,0,0,239.52,0,534.98Z"/>
  <path class="st1" d="M693.05,365.16c414.22-317.84,1064.99-317.85,1614.41,0v2269.67H693.05C.2,1883.43,110.79,811.94,693.05,365.16Z"/>
</svg>